# xmcd CD database file
#
# Track frame offsets:
#	150
#	27404
#	51753
#	70005
#	95862
#	111686
#	132626
#	160648
#	178693
#
# Disc length: 2656 seconds
#
# Revision: 1
# Processed by: cddbd v1.5.2PL0 Copyright (c) Steve Scherf et al.
# Submitted via: CDex 1.70beta2
#
DISCID=830a5e09
DTITLE=Schiller - Lichtblick Disc
DYEAR=2010
DGENRE=New Age
TTITLE0=Lichtblick
TTITLE1=Ghost (Mit Kate Havnevik)
TTITLE2=Zeitschleife
TTITLE3=Daylight (Mit Mia Bergstroem)
TTITLE4=Heimathafen
TTITLE5=Innocent Lies (Mit Anggun)
TTITLE6=Le Vide
TTITLE7=Sunday (Mit Despina Vandi)
TTITLE8=Lichtblick Reprise
EXTD=YEAR: 2010
EXTT0=
EXTT1=
EXTT2=
EXTT3=
EXTT4=
EXTT5=
EXTT6=
EXTT7=
EXTT8=
PLAYORDER=
